<svg width="16" height="16" viewBox="0 0 16 16" fill="none" xmlns="http://www.w3.org/2000/svg">
<path d="M3.64418 13.6915C4.06801 14.0436 4.69438 14.2971 5.57707 14.2288C5.57807 14.3418 5.57905 14.4448 5.57993 14.5368C5.58099 14.6475 5.58189 14.7423 5.58249 14.819C2.77572 13.8242 0.766663 11.1462 0.766663 8.00025C0.766663 4.00511 4.0056 0.766663 7.99928 0.766663C11.9944 0.766663 15.2333 4.00517 15.2333 8.00025C15.2333 11.147 13.2243 13.8238 10.4178 14.8193C10.4182 14.7441 10.4189 14.6513 10.4196 14.5427C10.4204 14.4417 10.4212 14.327 10.422 14.2003C10.4244 13.8304 10.4267 13.3623 10.4267 12.844C10.4267 12.4397 10.359 12.0845 10.2423 11.7855C10.9043 11.6456 11.5757 11.3971 12.1343 10.9295C12.9418 10.2535 13.4328 9.19054 13.4328 7.59577C13.4328 6.73521 13.1604 6.0031 12.6986 5.40976C12.8089 4.98176 12.8951 4.22212 12.5255 3.28979L12.4384 3.07014L12.2135 2.99795L12.0607 3.47403C12.2135 2.99795 12.213 2.99779 12.2125 2.99764L12.2115 2.99733L12.2095 2.99669L12.2053 2.99539L12.1961 2.99268C12.1896 2.99083 12.1824 2.98889 12.1745 2.98692C12.1588 2.98298 12.1403 2.9789 12.1191 2.97506C12.0766 2.96736 12.0234 2.96066 11.9594 2.9577C11.831 2.95178 11.6614 2.96107 11.449 3.00585C11.0603 3.08778 10.5317 3.28763 9.84675 3.72653C9.24903 3.58127 8.62267 3.50936 8.00276 3.50622V3.5062L7.9977 3.50622C7.37754 3.50936 6.75079 3.58123 6.15356 3.72651C5.4681 3.28756 4.93904 3.08774 4.55004 3.00583C4.33744 2.96106 4.16779 2.95178 4.03933 2.9577C3.97527 2.96065 3.92209 2.96735 3.87961 2.97504C3.8584 2.97888 3.83994 2.98294 3.8242 2.98688C3.81634 2.98885 3.80916 2.99078 3.80267 2.99263L3.79346 2.99533L3.78924 2.99663L3.78723 2.99726L3.78625 2.99757C3.78576 2.99773 3.78528 2.99788 3.93785 3.47403L3.78528 2.99788L3.55991 3.07009L3.47289 3.29017C3.1043 4.22225 3.19052 4.98182 3.30125 5.41022C2.84042 6.00278 2.56576 6.73453 2.56576 7.59577C2.56576 9.18696 3.0561 10.2496 3.86111 10.9272C4.41963 11.3974 5.09131 11.6484 5.75337 11.7903C5.71764 11.8824 5.68657 11.9798 5.6607 12.0823C5.49777 12.1318 5.30395 12.1669 5.11 12.1496C4.84645 12.1261 4.54108 12.005 4.28026 11.5601L4.27383 11.5489C4.26843 11.5396 4.26127 11.5276 4.25236 11.5133C4.23457 11.4847 4.2096 11.4463 4.17745 11.4014C4.11362 11.3122 4.01897 11.1933 3.89305 11.0716C3.64463 10.8315 3.24369 10.5517 2.69732 10.5133L2.68293 10.5123L2.66851 10.5121L2.66223 11.012C2.66851 10.5121 2.66835 10.5121 2.6682 10.5121L2.66786 10.5121L2.66714 10.5121L2.66547 10.5121L2.66126 10.512L2.64948 10.5121C2.64022 10.5122 2.62806 10.5124 2.6136 10.5129C2.58513 10.5139 2.54554 10.5161 2.50035 10.5211C2.42984 10.5289 2.26982 10.5502 2.12488 10.6328C2.04708 10.6771 1.92789 10.7649 1.85904 10.9227C1.78338 11.0961 1.80497 11.2685 1.86011 11.3998C1.9495 11.6128 2.14737 11.7722 2.32709 11.8949L2.36029 11.9176L2.38695 11.9301C2.3911 11.9325 2.39952 11.9377 2.41155 11.9459C2.44046 11.9657 2.49053 12.0036 2.55255 12.0658C2.67393 12.1874 2.84802 12.4089 2.99755 12.7837C2.99889 12.7877 3.00037 12.792 3.00201 12.7966C3.00858 12.8152 3.0176 12.8393 3.02944 12.8679C3.05305 12.9251 3.0882 13.0012 3.13792 13.0885C3.23701 13.2625 3.3972 13.4864 3.64418 13.6915ZM2.75059 10.9574C2.75063 10.9574 2.75125 10.9581 2.75235 10.9595C2.7511 10.9581 2.75055 10.9574 2.75059 10.9574Z" fill="#09090B" stroke="#18181B"/>
</svg>
